PathFileType	4	(X/Y/Z)	..\data\2014001\dynamic\2014001_C4_05.trc
DataRate	CameraRate	NumFrames	NumMarkers	Units	OrigDataRate	OrigDataStartFrame	OrigNumFrames
100.000000	100.000000	4	52	mm	100.000000	136	156
Frame#	Time	L_IAS			L_IPS			R_IPS			R_IAS			L_FTC			L_FLE			L_FME			L_FAX			L_TTC			L_FAL			L_TAM			L_FCC			L_FM1			L_FM2			L_FM5			R_FTC			R_FLE			R_FME			R_FAX			R_TTC			R_FAL			R_TAM			R_FCC			R_FM1			R_FM2			R_FM5			CV7			TV10			SXS			SJN			L_SIA			L_SRS			L_SAA			L_SAE			L_HLE			L_HME			L_UOA			L_RSP			L_UHE			L_HM2			L_HM5			R_SIA			R_SRS			R_SAA			R_SAE			R_HLE			R_HME			R_UOA			R_RSP			R_UHE			R_HM2			R_HM5			
		X1	Y1	Z1	X2	Y2	Z2	X3	Y3	Z3	X4	Y4	Z4	X5	Y5	Z5	X6	Y6	Z6	X7	Y7	Z7	X8	Y8	Z8	X9	Y9	Z9	X10	Y10	Z10	X11	Y11	Z11	X12	Y12	Z12	X13	Y13	Z13	X14	Y14	Z14	X15	Y15	Z15	X16	Y16	Z16	X17	Y17	Z17	X18	Y18	Z18	X19	Y19	Z19	X20	Y20	Z20	X21	Y21	Z21	X22	Y22	Z22	X23	Y23	Z23	X24	Y24	Z24	X25	Y25	Z25	X26	Y26	Z26	X27	Y27	Z27	X28	Y28	Z28	X29	Y29	Z29	X30	Y30	Z30	X31	Y31	Z31	X32	Y32	Z32	X33	Y33	Z33	X34	Y34	Z34	X35	Y35	Z35	X36	Y36	Z36	X37	Y37	Z37	X38	Y38	Z38	X39	Y39	Z39	X40	Y40	Z40	X41	Y41	Z41	X42	Y42	Z42	X43	Y43	Z43	X44	Y44	Z44	X45	Y45	Z45	X46	Y46	Z46	X47	Y47	Z47	X48	Y48	Z48	X49	Y49	Z49	X50	Y50	Z50	X51	Y51	Z51	X52	Y52	Z52	

137	1.36	730.4908447265626	880.0234985351565	144.1322784423829	554.6137695312501	913.5076904296877	216.6645050048829	553.1664428710939	910.9331665039065	304.966278076172	728.6909790039064	880.1888427734377	382.7120361328127	666.0668334960939	792.3687744140627	84.24226379394541	791.8870239257815	458.965057373047	92.69496154785168	829.661315917969	447.1968078613282	205.8025207519533	766.5852050781251	401.6136779785157	89.41139221191418	831.8421630859377	371.2596130371094	127.1314163208009	684.2637329101564	92.60349273681642	131.1010589599611	721.2635498046876	94.91033935546876	213.6549530029298	640.2789306640626	57.894344329834	183.3905181884767	817.5739746093752	29.34724426269532	178.6815795898439	811.9053344726565	42.87390518188477	121.9841461181642	762.0926513671876	33.47764587402344	89.73191833496105	629.9412841796876	785.4490966796877	437.5673217773439	606.2112426757814	434.8237609863282	388.4564819335939	623.3965454101564	426.8385314941407	271.0484924316407	577.8178100585939	371.3525085449219	389.3010253906252	640.2185668945314	357.9142761230469	340.9216613769532	493.2732849121094	69.03158569335939	330.4225158691407	536.3539428710939	83.89774322509767	248.4814300537111	449.3985595703126	35.47116470336915	270.9160156250001	635.4259643554689	18.77989006042481	263.3250427246095	639.9721069335939	27.4142189025879	327.648651123047	577.4357910156251	16.34905624389649	370.7857360839845	592.7047119140626	1376.966186523438	264.307586669922	529.1573486328126	1145.086791992188	269.0966796875001	762.5363769531251	1156.569946289063	249.9373931884767	716.9321289062501	1318.409912109375	254.0206604003908	517.1420288085939	1185.674926757813	180.1696319580079	537.4393310546876	1316.741943359375	185.7904663085938	596.9684448242189	1313.883544921875	73.94435119628915	639.0307617187501	1325.220947265625	81.49600219726572	578.0360107421876	1047.572387695313	4.50589704513557	560.5034179687501	1016.2001953125	86.02749633789071	548.9301757812501	1018.37939453125	36.6786193847657	635.2044067382814	803.3970947265627	21.54484939575203	582.7416992187501	813.6910400390627	-40.14207458496087	645.7897338867189	715.3482666015626	11.87912273406991	561.2709350585939	737.5208740234376	-44.108413696289	537.0883178710939	1189.434692382813	390.020721435547	555.4404907226564	1313.18994140625	360.9555969238282	645.4394531250001	1314.534423828125	456.0132751464845	692.2158813476564	1319.119018554688	438.1748962402345	692.9005737304688	1022.463562011719	532.7238769531252	657.1372070312501	996.1694335937502	462.4146118164064	663.7319946289062	989.8581542968752	507.8484497070314	834.8947753906251	842.7918701171877	491.3255615234377	794.0819091796876	830.6648559570315	560.6890258789065	893.4211425781251	770.768249511719	506.4754943847659	811.1943969726564	751.9445190429689	565.3113403320315	
138	1.37	743.9368896484376	877.9772949218752	144.4916992187501	567.7217407226564	911.7612915039065	216.206512451172	565.8309936523439	909.5360107421877	304.2513427734376	740.8903808593751	878.2421875000002	383.2385253906252	679.5732421875001	790.2188720703127	84.17375183105479	807.883239746094	457.5837707519532	93.94288635253918	845.7203369140627	446.8895263671876	206.6662597656252	785.634460449219	398.9254150390626	90.66207122802746	852.095886230469	372.4507446289063	128.385467529297	726.4923706054689	84.93430328369142	131.0583953857423	762.7709350585939	89.69532012939455	213.8033447265626	685.1132202148439	47.11861801147462	183.6302947998048	863.5826416015627	31.87626838684083	177.8650970458986	856.7272949218752	45.21257781982423	121.2822494506837	807.7435302734377	32.45064163208009	89.20008087158214	640.6137084960939	784.552429199219	437.6051635742189	610.1804199218751	434.7666320800782	388.4687500000002	628.3747558593751	426.1575622558595	271.1719055175782	580.9743652343751	371.6091918945313	389.1466064453127	643.3602905273439	357.2520141601563	341.2333374023439	493.8753662109376	69.84300231933595	329.9324951171876	537.3211669921876	84.50530242919923	248.0690917968751	449.8084106445313	36.82342147827149	270.1692504882814	635.5856933593751	18.74386024475098	263.4398498535157	640.0029907226564	27.29829978942872	327.7163085937501	577.2460327148439	16.41067695617676	370.5308227539064	607.0204467773439	1375.318237304688	264.0547790527345	542.7326660156251	1143.707763671875	268.994598388672	776.1995239257815	1154.328735351563	250.1010742187501	731.1887817382814	1316.298583984375	253.8176879882814	530.8399658203126	1183.907470703125	180.5764617919923	551.6250610351564	1314.98583984375	185.8661346435548	610.5537719726564	1311.827270507813	74.25412750244149	653.1715698242189	1322.811279296875	80.96161651611338	587.9567260742189	1046.373901367188	4.327467918396069	571.0742797851564	1014.953186035156	85.76058959960946	558.8479003906251	1017.860412597656	36.90830993652352	639.9512329101564	801.1827392578127	19.48000717163094	586.8643188476564	812.899108886719	-41.38562774658197	648.2512207031251	712.9375610351564	9.410338401794515	563.6152954101564	737.1742553710939	-45.27842330932611	551.2518920898439	1188.091186523438	390.1532592773439	569.6312866210939	1311.74658203125	360.8272705078126	659.5683593750001	1313.074584960938	455.899383544922	706.3372192382814	1317.642333984375	438.029968261719	709.4102783203125	1021.448974609375	533.998474121094	674.1000366210939	994.3830566406252	463.8115539550783	681.0248413085938	987.8968505859377	509.3204650878908	856.8508911132814	846.3552856445315	490.8913574218752	816.5863037109376	832.2728271484377	560.1909790039065	917.7594604492189	776.2630004882815	505.4299316406252	836.2758178710939	754.2134399414064	564.133239746094	
139	1.38	757.4206542968751	875.5628662109377	144.7075805664064	580.9104614257814	909.6868896484377	215.7133941650392	578.6027832031251	907.9006958007815	303.5210876464845	753.2734375000001	876.1099243164065	383.6111450195314	692.9797363281251	787.6793212890627	84.11906433105479	823.2339477539065	455.6267395019532	95.23235321044933	861.1036376953127	445.985809326172	207.6807098388674	804.2322387695315	395.8839111328126	91.97446441650402	871.745300292969	373.4124145507813	129.7516021728517	768.887390136719	78.5353240966797	130.9259643554689	804.206237792969	85.82148742675783	213.875442504883	730.3925170898439	37.82638931274415	183.7166442871095	909.039489746094	36.03406143188477	177.3127593994142	901.1954345703127	49.02664184570314	120.8118896484376	853.3616333007815	32.86948013305665	88.79879760742199	651.5049438476564	783.4995117187502	437.6080627441408	614.4793090820314	434.6588134765626	388.4651489257814	633.6073608398439	425.3613586425782	271.2783203125001	584.4454345703126	371.8462524414063	389.0050659179689	646.7567138671876	356.5210266113282	341.497528076172	494.5200500488282	70.73951721191408	329.5090942382814	538.2366943359376	85.13604736328126	247.683807373047	450.1678466796876	38.31464767456055	269.5521545410157	635.6994628906251	18.70351791381836	263.5195922851564	640.0165405273439	27.19236946105958	327.7607421875001	577.0798950195314	16.5078182220459	370.2788391113282	621.2885742187501	1373.482788085938	263.8636474609376	556.3564453125001	1142.083740234375	268.7781066894532	789.8877563476565	1151.754760742188	250.2068023681642	745.5202026367189	1313.871948242188	253.5632476806642	544.6326904296876	1181.910522460938	180.828598022461	565.9176635742189	1313.009033203125	185.8307647705079	624.3508911132814	1309.538696289063	74.41205596923837	667.6210327148439	1320.0927734375	80.21208190917979	598.2282714843751	1044.952880859375	4.094315052032544	581.9814453125001	1013.446960449219	85.41748046875009	569.1094970703126	1017.097900390625	37.07856750488289	645.1655883789064	798.8901367187502	17.31800651550301	591.3999023437501	812.023620605469	-42.60580825805658	651.1926269531251	710.5050048828126	6.758416175842367	566.4047241210939	736.8250122070314	-46.41641235351556	565.3994750976564	1186.50439453125	390.1671142578127	583.9178466796876	1310.04736328125	360.6038818359376	673.7892456054689	1311.29833984375	455.7191162109377	720.5559082031251	1315.807861328125	437.8087463378909	725.6943359375	1020.084411621094	535.164978027344	690.9224243164062	992.2754516601565	465.0523681640627	698.0894775390625	985.6380004882815	510.664001464844	878.4443969726564	849.7415771484377	490.3180236816409	838.7445068359376	833.6892089843752	559.5133056640627	941.6448974609376	781.658874511719	504.2469482421877	860.9867553710939	756.3717651367189	562.7334594726565	
140	1.39	770.9807739257815	872.8254394531252	144.8074035644532	594.2004394531251	907.3110351562502	215.1587829589845	591.4973144531251	906.0471191406252	302.7539062500001	765.8407592773439	873.822448730469	383.854217529297	706.3394775390626	784.8055419921877	84.07008361816416	838.028747558594	453.161590576172	96.54212188720716	875.9005126953127	444.5532226562501	208.8477478027345	822.4039306640627	392.5829467773439	93.34238433837902	890.8354492187502	374.1729736328126	131.1943359375001	811.0590820312502	73.4695281982422	130.7662048339845	845.2273559570315	83.30301666259767	213.9068450927736	775.6790161132815	30.10732650756837	183.7004852294923	953.5757446289065	41.72130584716798	177.076629638672	944.9616699218752	54.22060012817384	120.6237716674806	898.571960449219	34.66888046264649	88.59211730957044	662.6217041015626	782.310485839844	437.5767822265627	619.1593017578126	434.512420654297	388.4625549316408	639.1159057617189	424.4662170410157	271.3885192871095	588.2826538085939	372.0771484375001	388.9011535644533	650.4509277343751	355.7377624511719	341.7277221679689	495.2116699218751	71.7594451904297	329.1812133789064	539.1134643554689	85.82387542724611	247.3536224365236	450.4858093261719	39.97585678100587	269.0948486328126	635.7839355468751	18.67283630371094	263.5803527832032	640.0316162109376	27.10772514343262	327.7974853515626	576.9528198242189	16.64557456970215	370.0498046875001	635.5119628906251	1371.489013671875	263.727508544922	570.0360107421876	1140.243286132813	268.4485168457032	803.6128540039065	1148.893188476563	250.2464904785158	759.9237060546876	1311.17138671875	253.2493438720705	558.5181884765626	1179.713745117188	180.9212799072266	580.3056640625001	1310.842529296875	185.6890869140626	638.3447265625001	1307.052490234375	74.4097900390626	682.3395996093751	1317.114379882813	79.26180267333994	608.8673706054689	1043.32763671875	3.807106018066482	593.2413940429689	1011.70703125	85.0137252807618	579.7333374023439	1016.106079101563	37.19353866577156	650.8899536132814	796.5295410156252	15.06072521209725	596.3915405273439	811.0772094726565	-43.80212402343744	654.6328735351564	708.0457153320314	3.936497926712117	569.6658935546876	736.4910278320314	-47.51742172241205	579.5366210937501	1184.695068359375	390.056365966797	598.3044433593751	1308.120727539063	360.2841186523439	688.1097412109376	1309.235595703125	455.4664001464845	734.8770141601564	1313.647338867188	437.5020141601565	741.7684326171875	1018.392150878906	536.2017822265627	707.602783203125	989.8775634765627	466.1209716796877	714.9290161132812	983.1105957031252	511.8570556640627	899.6399536132814	852.9285888671877	489.6021423339846	860.5278930664064	834.9131469726565	558.656188964844	965.0263671875001	786.9226074218752	502.9384460449221	885.2767944335939	758.4093627929689	561.125915527344	
